<?xml version="1.0" encoding="utf-8" ?><svg xmlns="http://www.w3.org/2000/svg" xmlns:xlink="http://www.w3.org/1999/xlink" width="216" height="328" viewBox="0 0 216 328"><path transform="scale(2.34262 2.34262)" d="M73.5534 15.4339C73.7527 15.5343 73.9573 15.6514 74.1233 15.8029C75.0463 16.6449 74.9578 19.0427 74.9969 20.2351C75.1708 25.536 75.3322 80.2076 74.7043 81.6378C74.351 82.4425 73.8414 82.9031 73.0261 83.222C70.9346 84.0402 68.5102 84.0672 66.3094 84.4504C64.2759 84.8046 62.2783 85.3605 60.2434 85.7062C55.3068 86.5451 49.9088 87.0813 45.1902 88.859C41.5707 90.2226 37.3502 93.0582 34.6949 95.8911C34.1858 95.7644 33.6714 95.4664 33.5773 94.9166C32.9372 91.177 33.2514 86.5622 33.2452 82.7779L33.3868 58.3828C33.4198 55.4541 33.3632 52.5619 34.3852 49.7943C37.9331 40.1855 44.8286 36.0394 52.4609 30.5065C56.7856 27.3674 61.1416 24.272 65.5285 21.2205C67.4457 19.8916 72.0412 16.9124 73.5534 15.4339Z"/><path transform="scale(2.34262 2.34262)" d="M27.6352 73.0031C28.5101 72.9356 28.7667 72.9498 29.635 73.081C30.8241 74.6696 29.233 95.5814 30.416 98.7017C31.5594 101.718 37.6252 104.007 40.4305 105.259C39.6739 106.774 38.9767 107.906 37.8327 109.16C35.9941 111.182 33.7221 112.762 31.1867 113.783C26.5645 115.616 23.0175 115.595 18.368 116.39C12.7707 117.346 6.00925 118.812 0.383383 119.063L1.75007 116.394C4.50412 111.758 15.8335 100.757 16.8106 97.1327C15.8145 93.6346 -0.0100114 89.8891 0.902277 86.4306C9.71508 81.762 18.6282 77.2851 27.6352 73.0031Z"/><path transform="scale(2.34262 2.34262)" d="M81.5099 0.30999C85.0393 0.128477 90.5976 -1.14146 89.5191 4.30722C89.3467 5.17847 89.1741 5.47293 88.4525 5.97939C85.0264 5.88419 78.6882 7.53689 80.082 2.16395C80.3812 1.01082 80.54 1.01938 81.5099 0.30999Z"/><path transform="scale(2.34262 2.34262)" d="M43.1413 93.1553C44.1702 93.206 43.9303 93.0597 44.666 93.6056C45.2916 95.0819 45.6445 101.87 43.8024 102.753C42.7779 102.823 41.8013 102.253 40.8631 101.813C40.136 101.483 38.6041 100.869 38.1429 100.303C37.7886 99.8767 37.6213 99.3251 37.6788 98.7734C37.8539 97.0778 41.6538 94.3443 43.1413 93.1553Z"/><path transform="scale(2.34262 2.34262)" d="M81.0558 85.8442C80.6041 85.0583 80.0935 84.1163 80.0691 83.2106C79.9483 78.7191 79.999 74.1389 79.998 69.6457L79.9996 43.2707L80.0007 23.6372C80.0004 22.6197 79.721 13.6227 80.6433 13.3982C82.4923 12.9481 88.1807 12.3173 89.5262 14.0333C89.9574 16.7797 89.8059 21.5503 89.7844 24.4591L89.7107 39.8695L89.7303 66.6165C89.7367 72.4945 90.2755 80.3025 88.8253 85.8431C86.3248 86.0028 83.2469 85.478 81.0558 85.8442Z"/><path transform="scale(2.34262 2.34262)" d="M86.6224 98.5664C87.4097 98.6157 88.4223 98.5596 88.9529 99.0995C90.2105 102.119 89.8052 115.911 89.7392 119.951C89.66 124.788 90.3093 136.071 88.8337 140L88.3939 140C87.4773 138.474 86.0988 137.47 84.6597 136.472C83.8846 137.162 81.588 139.42 80.7647 139.48C80.3455 139.099 80.1105 138.46 80.1042 137.901C79.9689 125.896 79.8832 113.854 80.091 101.852C80.106 100.991 80.31 99.6904 80.8576 99.0211C81.5494 98.4783 82.3857 98.5925 83.261 98.6106L86.6224 98.5664Z"/><path transform="scale(2.34262 2.34262)" d="M80.7306 86.6362C83.4441 86.6502 86.1575 86.6839 88.8706 86.7372C90.2831 87.0793 90.9887 87.1965 92 88.3266L92 88.9557L90.577 90.8539C87.758 91.0172 79.0684 92.0983 77.8767 89.1792C77.7743 87.1797 79.0739 87.0197 80.7306 86.6362Z"/><path transform="scale(2.34262 2.34262)" d="M92 9.2139C91.6985 9.88929 91.1764 11.0606 90.4143 11.2237C75.6059 14.3921 71.431 5.41855 89.8882 7.72763C90.6194 7.8191 91.2991 8.14505 92 8.54974L92 9.2139Z"/><path transform="scale(2.34262 2.34262)" d="M84.2589 97.7263C81.8318 97.2213 80.2267 98.3 77.8904 96.4968C76.3711 93.4472 83.3577 93.1222 85.1164 93.2697C88.116 93.5211 90.3253 92.8926 92 95.8315L92 96.3657C89.8072 97.8912 88.643 97.7146 85.9986 97.7109L84.2589 97.7263Z"/><path transform="scale(2.34262 2.34262)" d="M81.0558 85.8442C83.2469 85.478 86.3248 86.0028 88.8253 85.8431L88.8706 86.7372C86.1575 86.6839 83.4441 86.6502 80.7306 86.6362L81.0558 85.8442Z"/><path transform="scale(2.34262 2.34262)" d="M84.2589 97.7263L85.9986 97.7109C86.2335 98.4007 86.066 98.2323 86.6224 98.5664L83.261 98.6106L84.2589 97.7263Z"/></svg>