<?xml version="1.0" encoding="UTF-8" standalone="no"?>
<!DOCTYPE svg PUBLIC "-//W3C//DTD SVG 1.1//EN" "http://www.w3.org/Graphics/SVG/1.1/DTD/svg11.dtd">
<svg xmlns="http://www.w3.org/2000/svg" version="1.1" viewBox="0.00 0.00 121.00 141.00">
<g stroke-width="2.00" fill="none" stroke-linecap="butt">
<path stroke="currentColor" vector-effect="non-scaling-stroke" d="
  M 87.46 18.53
  L 83.02 33.71
  A 0.33 0.33 0.0 0 1 82.39 33.71
  L 77.93 18.55
  A 0.76 0.76 0.0 0 0 77.20 18.00
  L 73.13 18.00
  A 0.39 0.39 0.0 0 0 72.76 18.51
  L 80.20 40.21
  A 1.21 1.20 -9.5 0 0 81.34 41.02
  L 83.99 41.02
  A 1.28 1.28 0.0 0 0 85.20 40.16
  L 90.85 23.86"
/>
<path stroke="currentColor" vector-effect="non-scaling-stroke" d="
  M 95.28 26.77
  L 95.33 40.40
  A 0.59 0.59 0.0 0 0 95.92 40.99
  L 112.23 40.99
  A 0.77 0.76 -0.0 0 0 113.00 40.23
  L 113.00 37.77
  A 0.77 0.77 0.0 0 0 112.23 37.00
  L 101.15 37.00
  A 0.62 0.62 0.0 0 1 100.53 36.38
  L 100.53 31.55
  A 0.56 0.56 0.0 0 1 101.09 30.99
  L 111.24 30.99
  A 0.50 0.50 0.0 0 0 111.74 30.49
  L 111.74 27.51
  A 0.50 0.50 0.0 0 0 111.24 27.01
  L 101.07 27.01
  A 0.56 0.55 -90.0 0 1 100.52 26.45
  L 100.52 22.58
  A 0.55 0.55 0.0 0 1 101.07 22.03
  L 112.43 22.05"
/>
<path stroke="currentColor" vector-effect="non-scaling-stroke" d="
  M 116.01 24.83
  Q 113.22 33.93 120.08 39.82"
/>
<path stroke="currentColor" vector-effect="non-scaling-stroke" d="
  M 96.94 86.02
  Q 96.96 85.45 96.65 85.06"
/>
<path stroke="currentColor" vector-effect="non-scaling-stroke" d="
  M 23.55 84.90
  Q 21.69 84.50 22.36 88.62
  A 0.58 0.47 27.7 0 0 22.45 88.83
  Q 22.71 89.14 23.12 89.16"
/>
<path stroke="currentColor" vector-effect="non-scaling-stroke" d="
  M 0.71 101.02
  Q 5.52 111.25 16.07 107.12
  Q 19.96 105.59 21.03 100.39
  A 0.63 0.62 -84.0 0 0 20.42 99.63
  L 17.00 99.63
  A 0.93 0.91 -79.1 0 0 16.15 100.22
  Q 14.58 104.39 10.09 103.57
  C 5.51 102.73 4.96 97.24 5.87 93.43
  C 7.06 88.48 14.17 87.83 15.76 92.27
  A 1.29 1.29 0.0 0 0 16.97 93.12
  L 20.02 93.12
  A 0.93 0.93 0.0 0 0 20.90 91.88
  Q 18.77 85.67 12.74 85.05
  Q 4.09 84.16 0.70 92.04"
/>
<path stroke="currentColor" vector-effect="non-scaling-stroke" d="
  M 106.90 95.07
  Q 101.36 101.99 100.69 102.95
  Q 99.44 104.74 99.94 107.35
  A 0.77 0.76 84.5 0 0 100.69 107.97
  L 116.86 107.97
  A 0.87 0.87 0.0 0 0 117.73 107.10
  L 117.73 104.97
  A 0.95 0.95 0.0 0 0 116.78 104.02
  L 106.53 104.02
  A 0.35 0.35 0.0 0 1 106.26 103.46
  Q 108.42 100.69 110.66 97.90
  Q 116.20 90.99 116.87 90.03
  Q 118.12 88.23 117.62 85.62
  A 0.77 0.76 84.5 0 0 116.87 85.00
  L 100.70 85.00
  A 0.87 0.87 0.0 0 0 99.83 85.87
  L 99.83 88.00
  A 0.95 0.95 0.0 0 0 100.78 88.95
  L 111.03 88.95
  A 0.35 0.35 0.0 0 1 111.30 89.52
  Q 109.14 92.28 106.90 95.07"
/>
<path stroke="currentColor" vector-effect="non-scaling-stroke" d="
  M 106.40 17.94
  L 97.53 17.93"
/>
<path stroke="currentColor" vector-effect="non-scaling-stroke" d="
  M 87.71 87.88
  Q 86.02 85.47 82.05 84.43"
/>
<path stroke="currentColor" vector-effect="non-scaling-stroke" d="
  M 71.57 84.67
  L 69.77 85.16
  A 0.63 0.62 -8.0 0 0 69.31 85.76
  L 69.24 98.66"
/>
<path stroke="currentColor" vector-effect="non-scaling-stroke" d="
  M 55.38 84.46
  Q 53.40 85.28 50.52 85.19"
/>
<path stroke="currentColor" vector-effect="non-scaling-stroke" d="
  M 38.72 84.84
  L 32.01 84.88"
/>
<path stroke="currentColor" vector-effect="non-scaling-stroke" d="
  M 40.90 89.04
  L 35.02 89.06
  A 0.54 0.54 0.0 0 0 34.48 89.60
  L 34.52 96.76"
/>
<path stroke="currentColor" vector-effect="non-scaling-stroke" d="
  M 88.02 88.57
  Q 88.01 89.93 88.60 91.31"
/>
<path stroke="currentColor" vector-effect="non-scaling-stroke" d="
  M 85.80 96.85
  Q 85.06 96.75 85.48 97.14"
/>
<path stroke="currentColor" vector-effect="non-scaling-stroke" d="
  M 82.34 94.51
  Q 83.11 93.47 83.21 92.25
  Q 83.49 88.78 79.59 89.11"
/>
<path stroke="currentColor" vector-effect="non-scaling-stroke" d="
  M 56.89 89.77
  A 7.30 6.32 -89.7 0 0 49.19 92.62"
/>
</g>
<path fill="currentColor" d="
  M 87.46 18.53
  L 83.02 33.71
  A 0.33 0.33 0.0 0 1 82.39 33.71
  L 77.93 18.55
  A 0.76 0.76 0.0 0 0 77.20 18.00
  L 73.13 18.00
  A 0.39 0.39 0.0 0 0 72.76 18.51
  L 80.20 40.21
  A 1.21 1.20 -9.5 0 0 81.34 41.02
  L 83.99 41.02
  A 1.28 1.28 0.0 0 0 85.20 40.16
  L 90.85 23.86
  L 95.28 26.77
  L 95.33 40.40
  A 0.59 0.59 0.0 0 0 95.92 40.99
  L 112.23 40.99
  A 0.77 0.76 -0.0 0 0 113.00 40.23
  L 113.00 37.77
  A 0.77 0.77 0.0 0 0 112.23 37.00
  L 101.15 37.00
  A 0.62 0.62 0.0 0 1 100.53 36.38
  L 100.53 31.55
  A 0.56 0.56 0.0 0 1 101.09 30.99
  L 111.24 30.99
  A 0.50 0.50 0.0 0 0 111.74 30.49
  L 111.74 27.51
  A 0.50 0.50 0.0 0 0 111.24 27.01
  L 101.07 27.01
  A 0.56 0.55 -90.0 0 1 100.52 26.45
  L 100.52 22.58
  A 0.55 0.55 0.0 0 1 101.07 22.03
  L 112.43 22.05
  Q 113.30 23.54 114.55 23.55
  A 0.81 0.79 75.4 0 1 115.25 23.97
  Q 115.54 24.50 116.01 24.83
  Q 113.22 33.93 120.08 39.82
  L 119.99 139.94
  A 0.63 0.63 0.0 0 1 119.36 140.57
  L 98.62 140.57
  A 0.74 0.74 0.0 0 1 97.88 139.84
  Q 97.77 132.01 97.89 109.01
  Q 97.95 96.70 97.71 91.01
  Q 97.60 88.45 96.94 86.02
  Q 96.96 85.45 96.65 85.06
  Q 96.86 84.52 96.78 84.25
  Q 88.89 55.17 61.06 43.95
  A 1.87 1.86 45.2 0 0 59.68 43.94
  Q 31.06 55.17 23.55 84.90
  Q 21.69 84.50 22.36 88.62
  A 0.58 0.47 27.7 0 0 22.45 88.83
  Q 22.71 89.14 23.12 89.16
  Q 22.97 89.07 22.69 89.31
  A 0.45 0.43 -23.1 0 0 22.56 89.62
  L 22.56 140.12
  A 0.45 0.45 0.0 0 1 22.11 140.57
  L 1.28 140.57
  A 0.58 0.57 90.0 0 1 0.71 139.99
  L 0.71 101.02
  Q 5.52 111.25 16.07 107.12
  Q 19.96 105.59 21.03 100.39
  A 0.63 0.62 -84.0 0 0 20.42 99.63
  L 17.00 99.63
  A 0.93 0.91 -79.1 0 0 16.15 100.22
  Q 14.58 104.39 10.09 103.57
  C 5.51 102.73 4.96 97.24 5.87 93.43
  C 7.06 88.48 14.17 87.83 15.76 92.27
  A 1.29 1.29 0.0 0 0 16.97 93.12
  L 20.02 93.12
  A 0.93 0.93 0.0 0 0 20.90 91.88
  Q 18.77 85.67 12.74 85.05
  Q 4.09 84.16 0.70 92.04
  L 0.70 27.64
  A 0.84 0.83 -17.3 0 1 1.07 26.95
  L 22.56 12.30
  A 0.24 0.24 0.0 0 1 22.94 12.50
  L 22.94 27.55
  A 0.18 0.17 -14.4 0 0 23.20 27.70
  L 32.71 22.20
  A 0.27 0.25 77.1 0 0 32.84 21.97
  L 32.84 6.98
  A 0.89 0.88 -11.7 0 1 33.38 6.17
  Q 43.78 1.76 54.65 0.68
  A 0.67 0.65 -2.8 0 1 55.38 1.33
  L 55.38 15.64
  A 0.82 0.82 0.0 0 0 56.20 16.46
  L 64.05 16.46
  A 0.92 0.91 0.0 0 0 64.97 15.55
  L 64.97 1.34
  A 0.67 0.67 0.0 0 1 65.70 0.67
  Q 76.65 1.68 86.92 6.12
  A 0.88 0.88 0.0 0 1 87.45 6.93
  L 87.46 18.53
  Z
  M 106.90 95.07
  Q 101.36 101.99 100.69 102.95
  Q 99.44 104.74 99.94 107.35
  A 0.77 0.76 84.5 0 0 100.69 107.97
  L 116.86 107.97
  A 0.87 0.87 0.0 0 0 117.73 107.10
  L 117.73 104.97
  A 0.95 0.95 0.0 0 0 116.78 104.02
  L 106.53 104.02
  A 0.35 0.35 0.0 0 1 106.26 103.46
  Q 108.42 100.69 110.66 97.90
  Q 116.20 90.99 116.87 90.03
  Q 118.12 88.23 117.62 85.62
  A 0.77 0.76 84.5 0 0 116.87 85.00
  L 100.70 85.00
  A 0.87 0.87 0.0 0 0 99.83 85.87
  L 99.83 88.00
  A 0.95 0.95 0.0 0 0 100.78 88.95
  L 111.03 88.95
  A 0.35 0.35 0.0 0 1 111.30 89.52
  Q 109.14 92.28 106.90 95.07
  Z"
/>
<path fill="currentColor" d="
  M 106.40 17.94
  L 97.53 17.93
  L 97.71 12.53
  A 0.27 0.27 0.0 0 1 98.14 12.31
  L 106.40 17.94
  Z"
/>
<path fill="currentColor" d="
  M 87.46 18.53
  Q 89.30 17.58 92.21 18.09
  A 0.45 0.44 -75.8 0 1 92.55 18.67
  L 90.85 23.86
  L 85.20 40.16
  A 1.28 1.28 0.0 0 1 83.99 41.02
  L 81.34 41.02
  A 1.21 1.20 -9.5 0 1 80.20 40.21
  L 72.76 18.51
  A 0.39 0.39 0.0 0 1 73.13 18.00
  L 77.20 18.00
  A 0.76 0.76 0.0 0 1 77.93 18.55
  L 82.39 33.71
  A 0.33 0.33 0.0 0 0 83.02 33.71
  L 87.46 18.53
  Z"
/>
<path fill="currentColor" d="
  M 97.53 17.93
  L 106.40 17.94
  L 111.97 18.07
  A 0.54 0.54 0.0 0 1 112.50 18.62
  L 112.43 22.05
  L 101.07 22.03
  A 0.55 0.55 0.0 0 0 100.52 22.58
  L 100.52 26.45
  A 0.56 0.55 90.0 0 0 101.07 27.01
  L 111.24 27.01
  A 0.50 0.50 0.0 0 1 111.74 27.51
  L 111.74 30.49
  A 0.50 0.50 0.0 0 1 111.24 30.99
  L 101.09 30.99
  A 0.56 0.56 0.0 0 0 100.53 31.55
  L 100.53 36.38
  A 0.62 0.62 0.0 0 0 101.15 37.00
  L 112.23 37.00
  A 0.77 0.77 0.0 0 1 113.00 37.77
  L 113.00 40.23
  A 0.77 0.76 -0.0 0 1 112.23 40.99
  L 95.92 40.99
  A 0.59 0.59 0.0 0 1 95.33 40.40
  L 95.28 26.77
  L 95.37 18.67
  A 0.58 0.58 0.0 0 1 95.90 18.09
  L 97.53 17.93
  Z"
/>
<path fill="currentColor" d="
  M 121.00 19.07
  L 121.00 26.12
  Q 120.12 29.54 121.00 32.93
  L 121.00 39.45
  Q 120.97 40.20 120.08 39.82
  Q 113.22 33.93 116.01 24.83
  Q 117.60 20.80 121.00 19.07
  Z"
/>
<path fill="currentColor" d="
  M 87.71 87.88
  Q 86.02 85.47 82.05 84.43
  Q 77.13 83.14 71.76 83.75
  A 0.41 0.40 -82.2 0 0 71.44 84.00
  Q 71.30 84.36 71.57 84.67
  L 69.77 85.16
  A 0.63 0.62 -8.0 0 0 69.31 85.76
  L 69.24 98.66
  Q 68.56 99.76 68.54 101.07
  A 0.27 0.26 -88.9 0 1 68.28 101.33
  L 68.02 101.33
  A 0.05 0.05 0.0 0 1 67.97 101.28
  Q 67.66 95.46 64.22 89.88
  A 0.99 0.99 0.0 0 1 64.34 88.68
  Q 64.45 88.57 65.04 88.67
  A 0.62 0.62 0.0 0 0 65.77 88.04
  L 65.68 84.33
  A 0.51 0.51 0.0 0 0 64.81 83.99
  L 64.68 84.13
  A 0.29 0.26 -63.6 0 1 64.50 84.20
  L 55.38 84.46
  Q 53.40 85.28 50.52 85.19
  Q 47.41 83.68 43.26 84.14
  A 2.33 2.27 -37.7 0 1 42.29 84.03
  Q 38.67 82.80 38.72 84.84
  L 32.01 84.88
  L 32.49 84.89
  A 0.39 0.39 0.0 0 0 32.77 84.23
  L 31.98 83.45
  A 0.80 0.80 0.0 0 1 31.80 82.62
  Q 34.26 75.81 38.13 69.79
  A 0.26 0.26 0.0 0 1 38.61 69.92
  L 38.61 77.75
  A 0.60 0.60 0.0 0 0 39.21 78.35
  L 48.87 78.35
  A 0.87 0.87 0.0 0 0 49.74 77.48
  L 49.74 68.53
  A 0.94 0.94 0.0 0 0 48.80 67.59
  L 40.65 67.59
  A 0.60 0.60 0.0 0 1 40.22 66.57
  L 43.94 62.85
  A 2.25 2.21 22.2 0 1 45.52 62.20
  L 48.76 62.20
  A 1.13 1.12 -6.4 0 0 49.86 60.83
  C 49.00 56.99 51.95 55.71 54.76 54.42
  A 0.46 0.45 -12.5 0 1 55.41 54.83
  L 55.41 61.18
  A 0.76 0.75 90.0 0 0 56.16 61.94
  L 64.95 61.94
  A 0.85 0.85 0.0 0 0 65.80 61.09
  L 65.80 54.90
  A 0.37 0.37 0.0 0 1 66.34 54.57
  Q 67.02 54.92 69.64 56.63
  C 71.46 57.82 71.53 58.86 71.31 60.96
  A 1.06 1.06 0.0 0 0 72.69 62.08
  C 76.24 60.95 78.08 64.04 80.32 66.89
  A 0.42 0.42 0.0 0 1 79.99 67.57
  L 72.06 67.57
  A 0.68 0.67 0.0 0 0 71.38 68.24
  L 71.38 77.79
  A 0.58 0.58 0.0 0 0 71.96 78.37
  L 80.89 78.37
  A 0.91 0.90 90.0 0 0 81.79 77.46
  L 81.79 69.83
  A 0.20 0.20 0.0 0 1 82.16 69.71
  Q 85.52 74.53 87.71 80.14
  C 88.52 82.22 88.69 82.30 87.87 84.58
  Q 87.30 86.17 87.71 87.88
  Z
  M 65.8980 68.3693
  A 0.69 0.69 0.0 0 0 65.2092 67.6781
  L 55.9893 67.6620
  A 0.69 0.69 0.0 0 0 55.2981 68.3508
  L 55.2820 77.5707
  A 0.69 0.69 0.0 0 0 55.9708 78.2619
  L 65.1907 78.2780
  A 0.69 0.69 0.0 0 0 65.8819 77.5892
  L 65.8980 68.3693
  Z"
/>
<path fill="currentColor" d="
  M 40.90 89.04
  L 35.02 89.06
  A 0.54 0.54 0.0 0 0 34.48 89.60
  L 34.52 96.76
  L 34.51 107.56
  A 0.43 0.43 0.0 0 1 34.08 107.99
  L 29.78 107.99
  A 0.44 0.43 0.0 0 1 29.34 107.56
  L 29.34 89.72
  A 0.59 0.58 -0.0 0 0 28.75 89.14
  L 23.12 89.16
  Q 22.71 89.14 22.45 88.83
  A 0.58 0.47 27.7 0 1 22.36 88.62
  Q 21.69 84.50 23.55 84.90
  L 32.01 84.88
  L 38.72 84.84
  L 40.76 84.91
  A 0.61 0.61 0.0 0 1 41.34 85.46
  Q 41.52 87.61 40.90 89.04
  Z"
/>
<path fill="currentColor" d="
  M 71.57 84.67
  L 82.05 84.43
  Q 86.02 85.47 87.71 87.88
  L 88.02 88.57
  Q 88.01 89.93 88.60 91.31
  Q 88.32 94.66 85.80 96.85
  Q 85.06 96.75 85.48 97.14
  C 87.92 98.43 87.71 102.52 87.80 105.59
  A 1.79 1.77 27.5 0 0 88.11 106.56
  L 88.72 107.45
  A 0.35 0.34 72.9 0 1 88.44 107.99
  L 83.61 107.99
  A 0.83 0.82 -90.0 0 1 82.79 107.16
  L 82.79 101.44
  A 2.45 2.44 -0.0 0 0 80.34 99.00
  L 75.83 99.00
  A 1.38 1.37 0.0 0 0 74.45 100.37
  L 74.45 107.53
  A 0.46 0.46 0.0 0 1 73.99 107.99
  L 69.93 107.99
  A 0.56 0.55 -0.5 0 1 69.37 107.45
  L 69.24 98.66
  L 69.31 85.76
  A 0.63 0.62 -8.0 0 1 69.77 85.16
  L 71.57 84.67
  Z
  M 82.34 94.51
  Q 83.11 93.47 83.21 92.25
  Q 83.49 88.78 79.59 89.11
  L 75.08 89.05
  A 0.62 0.62 0.0 0 0 74.45 89.67
  L 74.45 94.29
  A 0.67 0.66 -87.7 0 0 75.06 94.96
  Q 78.94 95.32 82.34 94.51
  Z"
/>
<path fill="currentColor" d="
  M 0.71 101.02
  Q -0.34 96.41 0.70 92.04
  Q 4.09 84.16 12.74 85.05
  Q 18.77 85.67 20.90 91.88
  A 0.93 0.93 0.0 0 1 20.02 93.12
  L 16.97 93.12
  A 1.29 1.29 0.0 0 1 15.76 92.27
  C 14.17 87.83 7.06 88.48 5.87 93.43
  C 4.96 97.24 5.51 102.73 10.09 103.57
  Q 14.58 104.39 16.15 100.22
  A 0.93 0.91 -79.1 0 1 17.00 99.63
  L 20.42 99.63
  A 0.63 0.62 -84.0 0 1 21.03 100.39
  Q 19.96 105.59 16.07 107.12
  Q 5.52 111.25 0.71 101.02
  Z"
/>
<path fill="currentColor" d="
  M 55.38 84.46
  Q 64.65 86.70 65.59 95.05
  Q 66.36 101.80 61.32 105.85
  Q 58.57 108.06 54.26 108.05
  C 46.77 108.02 42.25 101.22 43.36 94.12
  Q 44.24 88.52 50.52 85.19
  Q 53.40 85.28 55.38 84.46
  Z
  M 49.19 92.62
  A 7.29 6.31 -89.7 0 0 48.73 99.50
  A 7.31 6.33 -89.4 0 0 54.50 103.86
  A 7.31 6.32 -89.6 0 0 60.28 99.53
  A 7.29 6.31 -90.0 0 0 60.34 93.68
  A 7.35 6.34 -89.8 0 0 56.89 89.77
  A 7.30 6.32 -89.7 0 0 49.19 92.62
  Z"
/>
<path fill="currentColor" d="
  M 96.65 85.06
  Q 96.96 85.45 96.94 86.02
  L 96.92 107.31
  A 0.67 0.67 0.0 0 1 96.25 107.98
  L 92.66 107.98
  A 0.65 0.65 0.0 0 1 92.01 107.33
  L 92.01 85.69
  A 0.61 0.61 0.0 0 1 92.62 85.08
  L 96.65 85.06
  Z"
/>
<path fill="currentColor" d="
  M 110.66 97.90
  Q 108.42 100.69 106.26 103.46
  A 0.35 0.35 0.0 0 0 106.53 104.02
  L 116.78 104.02
  A 0.95 0.95 0.0 0 1 117.73 104.97
  L 117.73 107.10
  A 0.87 0.87 0.0 0 1 116.86 107.97
  L 100.69 107.97
  A 0.77 0.76 84.5 0 1 99.94 107.35
  Q 99.44 104.74 100.69 102.95
  Q 101.36 101.99 106.90 95.07
  Q 109.14 92.28 111.30 89.52
  A 0.35 0.35 0.0 0 0 111.03 88.95
  L 100.78 88.95
  A 0.95 0.95 0.0 0 1 99.83 88.00
  L 99.83 85.87
  A 0.87 0.87 0.0 0 1 100.70 85.00
  L 116.87 85.00
  A 0.77 0.76 84.5 0 1 117.62 85.62
  Q 118.12 88.23 116.87 90.03
  Q 116.20 90.99 110.66 97.90
  Z"
/>
<path fill="currentColor" d="
  M 88.60 91.31
  Q 88.01 89.93 88.02 88.57
  L 89.02 88.67
  A 0.63 0.63 0.0 0 1 89.59 89.25
  Q 89.67 90.43 88.60 91.31
  Z"
/>
<path fill="currentColor" d="
  M 40.90 89.04
  Q 37.28 94.80 35.99 101.19
  A 0.22 0.21 -46.3 0 1 35.57 101.20
  L 34.52 96.76
  L 34.48 89.60
  A 0.54 0.54 0.0 0 1 35.02 89.06
  L 40.90 89.04
  Z"
/>
<path fill="currentColor" d="
  M 82.34 94.51
  L 79.59 89.11
  Q 83.49 88.78 83.21 92.25
  Q 83.11 93.47 82.34 94.51
  Z"
/>
<path fill="currentColor" d="
  M 56.89 89.77
  L 53.75 96.42
  A 1.79 1.76 -30.4 0 0 53.61 96.94
  L 53.37 99.52
  A 0.39 0.39 0.0 0 1 52.75 99.80
  Q 52.47 99.60 52.14 99.87
  A 0.29 0.29 0.0 0 0 52.12 100.30
  L 52.54 100.72
  A 0.39 0.39 0.0 0 1 52.42 101.36
  Q 52.19 101.46 52.14 101.46
  A 0.34 0.34 0.0 0 1 51.78 101.14
  Q 51.51 96.62 49.19 92.62
  A 7.30 6.32 -89.7 0 1 56.89 89.77
  Z"
/>
<path fill="currentColor" d="
  M 85.80 96.85
  Q 85.66 96.72 85.48 97.14
  Q 85.06 96.75 85.80 96.85
  Z"
/>
</svg>
